# xmcd
#
# Track frame offsets:
#	150
#	19907
#	35771
#	52793
#	57572
#	74876
#	92919
#	105837
#	120906
#	138410
#	157387
#	177185
#
# Disc length: 2594 seconds
#
# Revision: 0
# Processed by: cddbd v1.5.2PL0 Copyright (c) Steve Scherf et al.
# Submitted via: EasyCDDAExtractor 9.1.3.1
#
DISCID=a90a200c
DTITLE=The Zac Brown Band - The Foundation
DYEAR=2008
DGENRE=Country
TTITLE0=Toes
TTITLE1=Whatever It Is
TTITLE2=Where The Boat Leaves From
TTITLE3=Violin Intro To Free
TTITLE4=Free
TTITLE5=Chicken Fried
TTITLE6=Mary
TTITLE7=Different Kind Of Fine
TTITLE8=Highway 20 Ride
TTITLE9=It's Not OK
TTITLE10=Jolene
TTITLE11=Sic 'em On A Chicken
EXTD=
EXTT0=
EXTT1=
EXTT2=
EXTT3=
EXTT4=
EXTT5=
EXTT6=
EXTT7=
EXTT8=
EXTT9=
EXTT10=
EXTT11=
PLAYORDER=
